# MagicaVoxel @ Ephtracy

# material
mtllib floor_doors.mtl
usemtl palette

# normals
vn -1 0 0
vn 1 0 0
vn 0 0 1
vn 0 0 -1
vn 0 -1 0
vn 0 1 0

# texcoords
vt 0.0332031 0.5
vt 0.0488281 0.5
vt 0.291016 0.5
vt 0.294922 0.5

# verts
v -10 1 9
v -10 1 -9
v -10 2 9
v -10 2 -9
v -9 1 10
v -9 1 9
v -9 1 -9
v -9 1 -10
v -9 2 10
v -9 2 9
v -9 2 -9
v -9 2 -10
v -8 2 3
v -8 2 2
v -8 2 -0
v -8 2 -1
v -8 2 -3
v -8 3 3
v -8 3 -3
v -6 2 1
v -6 2 -1
v -6 3 1
v -6 3 -1
v -5 2 2
v -5 2 1
v -5 2 -1
v -5 2 -2
v -5 3 2
v -5 3 1
v -5 3 -1
v -5 3 -2
v -3 2 1
v -3 2 -0
v -3 2 -1
v -3 3 1
v -3 3 -1
v 6 2 9
v 6 2 8
v 6 2 -8
v 6 2 -9
v 6 3 9
v 6 3 8
v 6 3 -8
v 6 3 -9
v -7 2 3
v -7 2 2
v -7 2 1
v -7 2 -1
v -7 2 -2
v -7 2 -3
v -7 3 3
v -7 3 2
v -7 3 1
v -7 3 -1
v -7 3 -2
v -7 3 -3
v -6 2 2
v -6 2 1
v -6 2 -1
v -6 2 -2
v -6 3 2
v -6 3 1
v -6 3 -1
v -6 3 -2
v -5 2 1
v -5 2 -1
v -5 3 1
v -5 3 -1
v -3 2 2
v -3 2 1
v -3 2 -1
v -3 2 -2
v -3 3 2
v -3 3 1
v -3 3 -1
v -3 3 -2
v -2 2 1
v -2 2 -0
v -2 2 -1
v -2 3 1
v -2 3 -1
v 9 1 10
v 9 1 9
v 9 1 -9
v 9 1 -10
v 9 2 10
v 9 2 9
v 9 2 8
v 9 2 -8
v 9 2 -9
v 9 2 -10
v 9 3 9
v 9 3 8
v 9 3 -8
v 9 3 -9
v 10 1 9
v 10 1 -9
v 10 2 9
v 10 2 -9
v -9 1 10
v -9 2 10
v 9 1 10
v 9 2 10
v -10 1 9
v -10 2 9
v -9 1 9
v -9 2 9
v 6 2 9
v 6 3 9
v 9 1 9
v 9 2 9
v 9 3 9
v 10 1 9
v 10 2 9
v -8 2 3
v -8 3 3
v -7 2 3
v -7 3 3
v -7 2 2
v -7 3 2
v -6 2 2
v -6 3 2
v -5 2 2
v -5 3 2
v -3 2 2
v -3 3 2
v -6 2 1
v -6 3 1
v -5 2 1
v -5 3 1
v -3 2 1
v -3 3 1
v -2 2 1
v -2 3 1
v -7 2 -1
v -7 3 -1
v -6 2 -1
v -6 3 -1
v -5 2 -1
v -5 3 -1
v -4 2 -1
v -3 2 -1
v -3 3 -1
v 6 2 -8
v 6 3 -8
v 8 2 -8
v 9 2 -8
v 9 3 -8
v 6 2 8
v 6 3 8
v 9 2 8
v 9 3 8
v -7 2 1
v -7 3 1
v -6 2 1
v -6 3 1
v -5 2 1
v -5 3 1
v -3 2 1
v -3 3 1
v -6 2 -1
v -6 3 -1
v -5 2 -1
v -5 3 -1
v -3 2 -1
v -3 3 -1
v -2 2 -1
v -2 3 -1
v -7 2 -2
v -7 3 -2
v -6 2 -2
v -6 3 -2
v -5 2 -2
v -5 3 -2
v -3 2 -2
v -3 3 -2
v -8 2 -3
v -8 3 -3
v -7 2 -3
v -7 3 -3
v -10 1 -9
v -10 2 -9
v -9 1 -9
v -9 2 -9
v 6 2 -9
v 6 3 -9
v 9 1 -9
v 9 2 -9
v 9 3 -9
v 10 1 -9
v 10 2 -9
v -9 1 -10
v -9 2 -10
v 9 1 -10
v 9 2 -10
v -9 1 10
v 9 1 10
v -10 1 9
v -9 1 9
v 9 1 9
v 10 1 9
v -9 1 7
v 0 1 7
v 6 1 7
v 7 1 7
v -9 1 6
v 0 1 6
v 6 1 6
v 7 1 6
v 9 1 6
v 0 1 5
v 6 1 5
v 7 1 5
v 9 1 5
v -9 1 3
v -6 1 3
v -9 1 2
v -6 1 2
v -2 1 2
v -6 1 1
v -2 1 1
v 2 1 1
v 5 1 1
v 9 1 1
v -9 1 -0
v -7 1 -0
v -4 1 -0
v -2 1 -0
v 2 1 -0
v 5 1 -0
v 6 1 -0
v 9 1 -0
v -9 1 -1
v -8 1 -1
v -7 1 -1
v -4 1 -1
v -2 1 -1
v 2 1 -1
v 6 1 -1
v -8 1 -2
v -4 1 -2
v 7 1 -3
v 9 1 -3
v -3 1 -4
v 2 1 -4
v 5 1 -4
v 7 1 -4
v 9 1 -4
v -9 1 -5
v -3 1 -5
v 2 1 -5
v 5 1 -5
v 7 1 -5
v -9 1 -6
v -3 1 -6
v 2 1 -6
v 5 1 -6
v 8 1 -6
v 5 1 -7
v 8 1 -7
v 9 1 -7
v 8 1 -8
v 9 1 -8
v -10 1 -9
v -9 1 -9
v 9 1 -9
v 10 1 -9
v -9 1 -10
v 9 1 -10
v -9 2 10
v 9 2 10
v -10 2 9
v -9 2 9
v 6 2 9
v 9 2 9
v 10 2 9
v 6 2 8
v 9 2 8
v -9 2 7
v 0 2 7
v 6 2 7
v 7 2 7
v -9 2 6
v 0 2 6
v 6 2 6
v 7 2 6
v 9 2 6
v 0 2 5
v 6 2 5
v 7 2 5
v 9 2 5
v -9 2 3
v -8 2 3
v -7 2 3
v -6 2 3
v -9 2 2
v -8 2 2
v -7 2 2
v -6 2 2
v -5 2 2
v -3 2 2
v -2 2 2
v -7 2 1
v -6 2 1
v -5 2 1
v -3 2 1
v -2 2 1
v 2 2 1
v 5 2 1
v 9 2 1
v -9 2 -0
v -8 2 -0
v -4 2 -0
v -3 2 -0
v -2 2 -0
v 2 2 -0
v 5 2 -0
v 6 2 -0
v 9 2 -0
v -9 2 -1
v -8 2 -1
v -7 2 -1
v -6 2 -1
v -5 2 -1
v -4 2 -1
v -3 2 -1
v -2 2 -1
v 2 2 -1
v 6 2 -1
v -7 2 -2
v -6 2 -2
v -5 2 -2
v -3 2 -2
v -8 2 -3
v -7 2 -3
v 7 2 -3
v 9 2 -3
v -3 2 -4
v 2 2 -4
v 5 2 -4
v 7 2 -4
v 9 2 -4
v -9 2 -5
v -3 2 -5
v 2 2 -5
v 5 2 -5
v 7 2 -5
v -9 2 -6
v -3 2 -6
v 2 2 -6
v 5 2 -6
v 8 2 -6
v 5 2 -7
v 8 2 -7
v 9 2 -7
v 6 2 -8
v 8 2 -8
v 9 2 -8
v -10 2 -9
v -9 2 -9
v 6 2 -9
v 9 2 -9
v 10 2 -9
v -9 2 -10
v 9 2 -10
v 6 3 9
v 9 3 9
v 6 3 8
v 9 3 8
v -8 3 3
v -7 3 3
v -7 3 2
v -6 3 2
v -5 3 2
v -3 3 2
v -7 3 1
v -6 3 1
v -5 3 1
v -3 3 1
v -2 3 1
v -7 3 -1
v -6 3 -1
v -5 3 -1
v -3 3 -1
v -2 3 -1
v -7 3 -2
v -6 3 -2
v -5 3 -2
v -3 3 -2
v -8 3 -3
v -7 3 -3
v 6 3 -8
v 9 3 -8
v 6 3 -9
v 9 3 -9

# faces
f 3/1/1 2/1/1 1/1/1
f 4/1/1 2/1/1 3/1/1
f 9/1/1 6/1/1 5/1/1
f 10/1/1 6/1/1 9/1/1
f 11/1/1 8/1/1 7/1/1
f 12/1/1 8/1/1 11/1/1
f 18/2/1 14/2/1 13/2/1
f 18/2/1 17/2/1 16/2/1
f 18/2/1 16/2/1 15/2/1
f 18/2/1 15/2/1 14/2/1
f 19/2/1 17/2/1 18/2/1
f 22/2/1 21/2/1 20/2/1
f 23/2/1 21/2/1 22/2/1
f 28/2/1 25/2/1 24/2/1
f 29/2/1 25/2/1 28/2/1
f 30/2/1 27/2/1 26/2/1
f 31/2/1 27/2/1 30/2/1
f 35/2/1 33/2/1 32/2/1
f 35/2/1 34/2/1 33/2/1
f 36/2/1 34/2/1 35/2/1
f 41/2/1 38/2/1 37/2/1
f 42/2/1 38/2/1 41/2/1
f 43/2/1 40/2/1 39/2/1
f 44/2/1 40/2/1 43/2/1
f 45/2/2 46/2/2 51/2/2
f 51/2/2 46/2/2 52/2/2
f 47/2/2 48/2/2 53/2/2
f 53/2/2 48/2/2 54/2/2
f 49/2/2 50/2/2 55/2/2
f 55/2/2 50/2/2 56/2/2
f 57/2/2 58/2/2 61/2/2
f 61/2/2 58/2/2 62/2/2
f 59/2/2 60/2/2 63/2/2
f 63/2/2 60/2/2 64/2/2
f 65/2/2 66/2/2 67/2/2
f 67/2/2 66/2/2 68/2/2
f 69/2/2 70/2/2 73/2/2
f 73/2/2 70/2/2 74/2/2
f 71/2/2 72/2/2 75/2/2
f 75/2/2 72/2/2 76/2/2
f 77/2/2 78/2/2 80/2/2
f 78/2/2 79/2/2 80/2/2
f 80/2/2 79/2/2 81/2/2
f 82/1/2 83/1/2 86/1/2
f 86/1/2 83/1/2 87/1/2
f 84/1/2 85/1/2 90/1/2
f 90/1/2 85/1/2 91/1/2
f 87/2/2 88/2/2 92/2/2
f 92/2/2 88/2/2 93/2/2
f 89/2/2 90/2/2 94/2/2
f 94/2/2 90/2/2 95/2/2
f 96/1/2 97/1/2 98/1/2
f 98/1/2 97/1/2 99/1/2
f 102/1/3 101/1/3 100/1/3
f 103/1/3 101/1/3 102/1/3
f 106/1/3 105/1/3 104/1/3
f 107/1/3 105/1/3 106/1/3
f 111/2/3 109/2/3 108/2/3
f 112/2/3 109/2/3 111/2/3
f 113/1/3 111/1/3 110/1/3
f 114/1/3 111/1/3 113/1/3
f 117/2/3 116/2/3 115/2/3
f 118/2/3 116/2/3 117/2/3
f 121/2/3 120/2/3 119/2/3
f 122/2/3 120/2/3 121/2/3
f 125/2/3 124/2/3 123/2/3
f 126/2/3 124/2/3 125/2/3
f 129/2/3 128/2/3 127/2/3
f 130/2/3 128/2/3 129/2/3
f 133/2/3 132/2/3 131/2/3
f 134/2/3 132/2/3 133/2/3
f 137/2/3 136/2/3 135/2/3
f 138/2/3 136/2/3 137/2/3
f 141/2/3 140/2/3 139/2/3
f 142/2/3 140/2/3 141/2/3
f 143/2/3 140/2/3 142/2/3
f 146/2/3 145/2/3 144/2/3
f 147/2/3 145/2/3 146/2/3
f 148/2/3 145/2/3 147/2/3
f 149/2/4 150/2/4 151/2/4
f 151/2/4 150/2/4 152/2/4
f 153/2/4 154/2/4 155/2/4
f 155/2/4 154/2/4 156/2/4
f 157/2/4 158/2/4 159/2/4
f 159/2/4 158/2/4 160/2/4
f 161/2/4 162/2/4 163/2/4
f 163/2/4 162/2/4 164/2/4
f 165/2/4 166/2/4 167/2/4
f 167/2/4 166/2/4 168/2/4
f 169/2/4 170/2/4 171/2/4
f 171/2/4 170/2/4 172/2/4
f 173/2/4 174/2/4 175/2/4
f 175/2/4 174/2/4 176/2/4
f 177/2/4 178/2/4 179/2/4
f 179/2/4 178/2/4 180/2/4
f 181/1/4 182/1/4 183/1/4
f 183/1/4 182/1/4 184/1/4
f 185/2/4 186/2/4 188/2/4
f 188/2/4 186/2/4 189/2/4
f 187/1/4 188/1/4 190/1/4
f 190/1/4 188/1/4 191/1/4
f 192/1/4 193/1/4 194/1/4
f 194/1/4 193/1/4 195/1/4
f 199/1/5 197/1/5 196/1/5
f 200/1/5 197/1/5 199/1/5
f 202/1/5 199/1/5 198/1/5
f 202/4/5 200/4/5 199/4/5
f 203/4/5 200/4/5 202/4/5
f 204/4/5 200/4/5 203/4/5
f 205/4/5 200/4/5 204/4/5
f 206/1/5 202/1/5 198/1/5
f 206/3/5 203/3/5 202/3/5
f 207/4/5 204/4/5 203/4/5
f 207/3/5 203/3/5 206/3/5
f 208/3/5 205/3/5 204/3/5
f 208/4/5 204/4/5 207/4/5
f 209/4/5 200/4/5 205/4/5
f 209/3/5 205/3/5 208/3/5
f 210/1/5 201/1/5 200/1/5
f 210/4/5 200/4/5 209/4/5
f 211/3/5 208/3/5 207/3/5
f 211/4/5 207/4/5 206/4/5
f 212/4/5 209/4/5 208/4/5
f 212/3/5 208/3/5 211/3/5
f 213/3/5 210/3/5 209/3/5
f 213/4/5 209/4/5 212/4/5
f 214/1/5 201/1/5 210/1/5
f 214/3/5 210/3/5 213/3/5
f 215/4/5 211/4/5 206/4/5
f 215/4/5 213/4/5 212/4/5
f 215/4/5 214/4/5 213/4/5
f 215/1/5 206/1/5 198/1/5
f 215/4/5 212/4/5 211/4/5
f 216/4/5 214/4/5 215/4/5
f 217/1/5 215/1/5 198/1/5
f 217/3/5 216/3/5 215/3/5
f 218/4/5 214/4/5 216/4/5
f 218/3/5 216/3/5 217/3/5
f 219/4/5 214/4/5 218/4/5
f 220/4/5 218/4/5 217/4/5
f 220/3/5 219/3/5 218/3/5
f 221/4/5 214/4/5 219/4/5
f 221/3/5 219/3/5 220/3/5
f 222/4/5 214/4/5 221/4/5
f 223/4/5 214/4/5 222/4/5
f 224/1/5 201/1/5 214/1/5
f 224/4/5 214/4/5 223/4/5
f 225/1/5 217/1/5 198/1/5
f 225/4/5 220/4/5 217/4/5
f 225/4/5 221/4/5 220/4/5
f 226/4/5 221/4/5 225/4/5
f 227/4/5 221/4/5 226/4/5
f 228/3/5 222/3/5 221/3/5
f 228/4/5 221/4/5 227/4/5
f 229/4/5 223/4/5 222/4/5
f 229/3/5 222/3/5 228/3/5
f 230/3/5 224/3/5 223/3/5
f 230/4/5 223/4/5 229/4/5
f 231/3/5 224/3/5 230/3/5
f 232/1/5 201/1/5 224/1/5
f 232/3/5 224/3/5 231/3/5
f 233/1/5 225/1/5 198/1/5
f 233/3/5 226/3/5 225/3/5
f 234/3/5 226/3/5 233/3/5
f 235/4/5 227/4/5 226/4/5
f 235/3/5 226/3/5 234/3/5
f 236/3/5 228/3/5 227/3/5
f 236/4/5 227/4/5 235/4/5
f 237/4/5 229/4/5 228/4/5
f 237/3/5 228/3/5 236/3/5
f 238/3/5 231/3/5 230/3/5
f 238/4/5 229/4/5 237/4/5
f 238/3/5 230/3/5 229/3/5
f 239/4/5 232/4/5 231/4/5
f 239/3/5 231/3/5 238/3/5
f 240/3/5 235/3/5 234/3/5
f 240/3/5 236/3/5 235/3/5
f 240/4/5 234/4/5 233/4/5
f 241/4/5 237/4/5 236/4/5
f 241/3/5 236/3/5 240/3/5
f 241/4/5 239/4/5 238/4/5
f 241/4/5 238/4/5 237/4/5
f 242/4/5 232/4/5 239/4/5
f 242/4/5 239/4/5 241/4/5
f 242/4/5 241/4/5 240/4/5
f 243/1/5 201/1/5 232/1/5
f 243/4/5 232/4/5 242/4/5
f 244/4/5 242/4/5 240/4/5
f 245/4/5 242/4/5 244/4/5
f 246/4/5 242/4/5 245/4/5
f 247/3/5 243/3/5 242/3/5
f 247/4/5 242/4/5 246/4/5
f 248/1/5 201/1/5 243/1/5
f 248/3/5 243/3/5 247/3/5
f 249/1/5 233/1/5 198/1/5
f 249/4/5 240/4/5 233/4/5
f 249/4/5 244/4/5 240/4/5
f 250/3/5 245/3/5 244/3/5
f 250/4/5 244/4/5 249/4/5
f 251/4/5 246/4/5 245/4/5
f 251/3/5 245/3/5 250/3/5
f 252/3/5 247/3/5 246/3/5
f 252/4/5 246/4/5 251/4/5
f 253/4/5 248/4/5 247/4/5
f 253/3/5 247/3/5 252/3/5
f 254/3/5 250/3/5 249/3/5
f 254/1/5 249/1/5 198/1/5
f 255/4/5 251/4/5 250/4/5
f 255/3/5 250/3/5 254/3/5
f 256/3/5 252/3/5 251/3/5
f 256/4/5 251/4/5 255/4/5
f 257/4/5 253/4/5 252/4/5
f 257/3/5 252/3/5 256/3/5
f 258/4/5 248/4/5 253/4/5
f 258/4/5 253/4/5 257/4/5
f 259/4/5 255/4/5 254/4/5
f 259/4/5 257/4/5 256/4/5
f 259/3/5 258/3/5 257/3/5
f 259/4/5 256/4/5 255/4/5
f 260/4/5 248/4/5 258/4/5
f 260/3/5 258/3/5 259/3/5
f 261/1/5 201/1/5 248/1/5
f 261/4/5 248/4/5 260/4/5
f 262/4/5 260/4/5 259/4/5
f 262/3/5 261/3/5 260/3/5
f 263/1/5 201/1/5 261/1/5
f 263/3/5 261/3/5 262/3/5
f 264/1/5 254/1/5 198/1/5
f 265/4/5 262/4/5 259/4/5
f 265/1/5 254/1/5 264/1/5
f 265/4/5 259/4/5 254/4/5
f 265/4/5 263/4/5 262/4/5
f 266/1/5 201/1/5 263/1/5
f 266/4/5 263/4/5 265/4/5
f 267/1/5 201/1/5 266/1/5
f 268/1/5 266/1/5 265/1/5
f 269/1/5 266/1/5 268/1/5
f 270/1/6 271/1/6 273/1/6
f 273/1/6 271/1/6 274/1/6
f 274/1/6 271/1/6 275/1/6
f 273/4/6 274/4/6 277/4/6
f 275/1/6 276/1/6 278/1/6
f 272/1/6 273/1/6 279/1/6
f 277/4/6 278/4/6 279/4/6
f 273/4/6 277/4/6 279/4/6
f 279/4/6 278/4/6 280/4/6
f 280/4/6 278/4/6 281/4/6
f 281/4/6 278/4/6 282/4/6
f 272/1/6 279/1/6 283/1/6
f 279/3/6 280/3/6 283/3/6
f 280/4/6 281/4/6 284/4/6
f 283/3/6 280/3/6 284/3/6
f 281/3/6 282/3/6 285/3/6
f 284/4/6 281/4/6 285/4/6
f 282/4/6 278/4/6 286/4/6
f 285/3/6 282/3/6 286/3/6
f 278/1/6 276/1/6 287/1/6
f 286/4/6 278/4/6 287/4/6
f 284/3/6 285/3/6 288/3/6
f 283/4/6 284/4/6 288/4/6
f 285/4/6 286/4/6 289/4/6
f 288/3/6 285/3/6 289/3/6
f 286/3/6 287/3/6 290/3/6
f 289/4/6 286/4/6 290/4/6
f 287/1/6 276/1/6 291/1/6
f 290/3/6 287/3/6 291/3/6
f 283/4/6 288/4/6 292/4/6
f 289/4/6 290/4/6 292/4/6
f 290/4/6 291/4/6 292/4/6
f 272/1/6 283/1/6 292/1/6
f 288/4/6 289/4/6 292/4/6
f 292/4/6 291/4/6 293/4/6
f 293/4/6 291/4/6 294/4/6
f 294/4/6 291/4/6 295/4/6
f 272/1/6 292/1/6 296/1/6
f 292/3/6 293/3/6 296/3/6
f 296/3/6 293/3/6 297/3/6
f 294/3/6 295/3/6 298/3/6
f 295/4/6 291/4/6 299/4/6
f 298/3/6 295/3/6 299/3/6
f 299/4/6 291/4/6 300/4/6
f 300/4/6 291/4/6 301/4/6
f 301/4/6 291/4/6 302/4/6
f 299/3/6 300/3/6 304/3/6
f 304/3/6 300/3/6 305/3/6
f 301/3/6 302/3/6 306/3/6
f 302/4/6 291/4/6 307/4/6
f 306/3/6 302/3/6 307/3/6
f 307/4/6 291/4/6 308/4/6
f 308/4/6 291/4/6 309/4/6
f 291/1/6 276/1/6 310/1/6
f 309/4/6 291/4/6 310/4/6
f 296/4/6 297/4/6 311/4/6
f 272/1/6 296/1/6 311/1/6
f 311/4/6 297/4/6 312/4/6
f 305/4/6 306/4/6 313/4/6
f 313/4/6 306/4/6 314/4/6
f 307/3/6 308/3/6 315/3/6
f 308/4/6 309/4/6 316/4/6
f 315/3/6 308/3/6 316/3/6
f 309/3/6 310/3/6 317/3/6
f 316/4/6 309/4/6 317/4/6
f 317/3/6 310/3/6 318/3/6
f 310/1/6 276/1/6 319/1/6
f 318/3/6 310/3/6 319/3/6
f 311/3/6 312/3/6 320/3/6
f 272/1/6 311/1/6 320/1/6
f 320/3/6 312/3/6 321/3/6
f 303/4/6 304/4/6 322/4/6
f 322/4/6 304/4/6 323/4/6
f 305/4/6 313/4/6 324/4/6
f 313/3/6 314/3/6 325/3/6
f 324/4/6 313/4/6 325/4/6
f 325/3/6 314/3/6 326/3/6
f 315/4/6 316/4/6 327/4/6
f 317/3/6 318/3/6 328/3/6
f 316/3/6 317/3/6 328/3/6
f 327/4/6 316/4/6 328/4/6
f 318/4/6 319/4/6 329/4/6
f 328/3/6 318/3/6 329/3/6
f 323/3/6 324/3/6 331/3/6
f 331/3/6 324/3/6 332/3/6
f 326/4/6 327/4/6 333/4/6
f 327/4/6 328/4/6 333/4/6
f 328/4/6 329/4/6 333/4/6
f 320/4/6 321/4/6 334/4/6
f 331/4/6 332/4/6 335/4/6
f 332/4/6 333/4/6 335/4/6
f 330/4/6 331/4/6 335/4/6
f 329/4/6 319/4/6 336/4/6
f 333/4/6 329/4/6 336/4/6
f 335/4/6 333/4/6 336/4/6
f 319/1/6 276/1/6 337/1/6
f 336/4/6 319/4/6 337/4/6
f 334/4/6 335/4/6 338/4/6
f 335/4/6 336/4/6 338/4/6
f 338/4/6 336/4/6 339/4/6
f 339/4/6 336/4/6 340/4/6
f 336/3/6 337/3/6 341/3/6
f 340/4/6 336/4/6 341/4/6
f 337/1/6 276/1/6 342/1/6
f 341/3/6 337/3/6 342/3/6
f 320/4/6 334/4/6 343/4/6
f 272/1/6 320/1/6 343/1/6
f 334/4/6 338/4/6 343/4/6
f 338/3/6 339/3/6 344/3/6
f 343/4/6 338/4/6 344/4/6
f 339/4/6 340/4/6 345/4/6
f 344/3/6 339/3/6 345/3/6
f 340/3/6 341/3/6 346/3/6
f 345/4/6 340/4/6 346/4/6
f 341/4/6 342/4/6 347/4/6
f 346/3/6 341/3/6 347/3/6
f 343/3/6 344/3/6 348/3/6
f 272/1/6 343/1/6 348/1/6
f 344/4/6 345/4/6 349/4/6
f 348/3/6 344/3/6 349/3/6
f 345/3/6 346/3/6 350/3/6
f 349/4/6 345/4/6 350/4/6
f 346/4/6 347/4/6 351/4/6
f 350/3/6 346/3/6 351/3/6
f 347/4/6 342/4/6 352/4/6
f 351/4/6 347/4/6 352/4/6
f 350/4/6 351/4/6 353/4/6
f 348/4/6 349/4/6 353/4/6
f 351/3/6 352/3/6 353/3/6
f 349/4/6 350/4/6 353/4/6
f 352/4/6 342/4/6 354/4/6
f 353/3/6 352/3/6 354/3/6
f 342/1/6 276/1/6 355/1/6
f 354/4/6 342/4/6 355/4/6
f 353/4/6 354/4/6 356/4/6
f 354/3/6 355/3/6 357/3/6
f 356/4/6 354/4/6 357/4/6
f 355/1/6 276/1/6 358/1/6
f 357/3/6 355/3/6 358/3/6
f 272/1/6 348/1/6 359/1/6
f 353/4/6 356/4/6 360/4/6
f 359/1/6 348/1/6 360/1/6
f 348/4/6 353/4/6 360/4/6
f 360/4/6 356/4/6 361/4/6
f 358/1/6 276/1/6 362/1/6
f 362/1/6 276/1/6 363/1/6
f 360/1/6 361/1/6 364/1/6
f 361/1/6 362/1/6 364/1/6
f 364/1/6 362/1/6 365/1/6
f 366/2/6 367/2/6 368/2/6
f 368/2/6 367/2/6 369/2/6
f 370/2/6 371/2/6 372/2/6
f 370/2/6 372/2/6 376/2/6
f 372/2/6 373/2/6 376/2/6
f 376/2/6 373/2/6 377/2/6
f 374/2/6 375/2/6 378/2/6
f 378/2/6 375/2/6 379/2/6
f 370/2/6 376/2/6 381/2/6
f 377/2/6 378/2/6 382/2/6
f 382/2/6 378/2/6 383/2/6
f 379/2/6 380/2/6 384/2/6
f 384/2/6 380/2/6 385/2/6
f 370/2/6 381/2/6 386/2/6
f 381/2/6 382/2/6 386/2/6
f 386/2/6 382/2/6 387/2/6
f 383/2/6 384/2/6 388/2/6
f 388/2/6 384/2/6 389/2/6
f 370/2/6 386/2/6 390/2/6
f 390/2/6 386/2/6 391/2/6
f 392/2/6 393/2/6 394/2/6
f 394/2/6 393/2/6 395/2/6
